<?xml version="1.0" standalone="no"?>
<!DOCTYPE svg PUBLIC "-//W3C//DTD SVG 20010904//EN"
 "http://www.w3.org/TR/2001/REC-SVG-20010904/DTD/svg10.dtd">
<svg version="1.0" xmlns="http://www.w3.org/2000/svg"
 width="512.000000pt" height="512.000000pt" viewBox="0 0 512.000000 512.000000"
 preserveAspectRatio="xMidYMid meet">
<metadata>
Created by potrace 1.14, written by Peter Selinger 2001-2017
</metadata>
<g transform="translate(0.000000,512.000000) scale(0.100000,-0.100000)"
fill="#000000" stroke="none">
<path d="M2113 3235 c-77 -21 -130 -51 -188 -106 l-52 -49 -6 28 c-27 133
-246 153 -307 27 -19 -40 -20 -62 -20 -575 0 -513 1 -535 20 -575 29 -60 84
-89 159 -83 39 3 68 11 90 27 59 42 61 58 61 403 0 172 5 342 10 377 25 149
109 225 250 224 106 -1 179 -44 222 -131 23 -46 23 -55 28 -417 5 -347 6 -372
25 -404 31 -53 67 -74 134 -79 77 -6 123 16 156 73 l25 42 0 334 c0 269 3 346
15 394 26 98 92 164 185 184 68 15 131 4 192 -33 42 -25 59 -43 83 -90 l30
-60 5 -372 c5 -358 6 -374 26 -401 38 -51 81 -73 144 -73 71 0 116 27 148 90
l23 45 -4 395 c-4 429 -6 450 -64 570 -33 68 -123 159 -191 194 -201 102 -451
62 -597 -96 -30 -32 -55 -63 -55 -69 0 -17 -19 -9 -25 10 -12 38 -117 133
-179 162 -106 49 -237 62 -343 34z"/>
<path d="M4280 3243 c-171 -29 -351 -161 -432 -318 -66 -128 -83 -201 -83
-360 0 -163 14 -227 76 -354 51 -103 152 -210 250 -264 212 -118 483 -97 639
49 26 24 49 44 52 44 3 0 8 -12 11 -28 13 -67 79 -112 163 -112 64 0 110 25
139 75 l25 42 0 543 c0 534 0 543 -21 580 -29 52 -83 80 -151 80 -68 0 -114
-28 -143 -85 -11 -22 -21 -42 -22 -44 -1 -2 -23 15 -49 38 -56 49 -148 94
-222 110 -51 11 -180 13 -232 4z m309 -346 c120 -59 191 -184 191 -337 0 -286
-265 -462 -501 -334 -239 131 -245 524 -10 662 99 58 214 61 320 9z"/>
<path d="M384 3180 c-232 -116 -368 -326 -381 -590 -5 -87 -2 -120 16 -190 40
-160 130 -301 251 -392 382 -285 919 -107 1062 352 19 62 23 97 23 200 0 111
-3 135 -29 214 -57 172 -193 330 -351 407 -45 21 -87 39 -93 39 -9 0 -12 -46
-12 -171 l0 -170 29 -25 c72 -60 121 -180 121 -295 0 -285 -265 -461 -501
-333 -130 71 -205 237 -179 396 13 82 60 177 110 222 l40 36 0 170 c0 138 -3
170 -14 170 -7 0 -49 -18 -92 -40z"/>
</g>
</svg>
