<?xml version="1.0" standalone="no"?>
<!DOCTYPE svg PUBLIC "-//W3C//DTD SVG 20010904//EN"
 "http://www.w3.org/TR/2001/REC-SVG-20010904/DTD/svg10.dtd">
<svg version="1.0" xmlns="http://www.w3.org/2000/svg"
 width="512.000000pt" height="512.000000pt" viewBox="0 0 512.000000 512.000000"
 preserveAspectRatio="xMidYMid meet">
<metadata>
Created by potrace 1.14, written by Peter Selinger 2001-2017
</metadata>
<g transform="translate(0.000000,512.000000) scale(0.100000,-0.100000)"
fill="#000000" stroke="none">
<path d="M0 2560 l0 -2560 2560 0 2560 0 0 2560 0 2560 -2560 0 -2560 0 0
-2560z m960 1085 l0 -1455 160 0 160 0 0 -1085 0 -1085 -630 0 -630 0 0 2540
0 2540 470 0 470 0 0 -1455z m1270 -5 l0 -1460 155 0 155 0 0 -1080 0 -1080
-615 0 -615 0 0 1085 0 1085 160 0 160 0 0 1455 0 1455 300 0 300 0 0 -1460z
m1280 0 l0 -1460 160 0 160 0 0 -1080 0 -1080 -627 2 -628 3 0 1075 0 1075
158 3 157 3 0 1459 0 1460 310 0 310 0 0 -1460z m1590 -1080 l0 -2540 -615 0
-615 0 0 1080 0 1080 150 0 150 0 0 1460 0 1460 465 0 465 0 0 -2540z"/>
</g>
</svg>
