<?xml version="1.0" standalone="no"?>
<!DOCTYPE svg PUBLIC "-//W3C//DTD SVG 20010904//EN"
 "http://www.w3.org/TR/2001/REC-SVG-20010904/DTD/svg10.dtd">
<svg version="1.0" xmlns="http://www.w3.org/2000/svg"
 width="500.000000pt" height="500.000000pt" viewBox="0 0 500.000000 500.000000"
 preserveAspectRatio="xMidYMid meet">
<metadata>
Created by potrace 1.14, written by Peter Selinger 2001-2017
</metadata>
<g transform="translate(0.000000,500.000000) scale(0.100000,-0.100000)"
fill="#000000" stroke="none">
<path d="M1665 4940 c-146 -53 -406 -183 -530 -266 -740 -494 -1166 -1326
-1132 -2209 15 -383 100 -716 268 -1054 524 -1057 1693 -1599 2834 -1315 873
218 1571 909 1806 1791 191 715 65 1479 -342 2085 -147 218 -379 462 -585 616
-199 148 -436 274 -671 356 l-103 35 0 -633 0 -633 40 -28 c113 -79 282 -288
364 -453 233 -466 194 -1091 -96 -1520 -257 -381 -681 -586 -1123 -543 -319
31 -576 156 -794 387 -178 188 -297 426 -353 707 -32 160 -32 424 0 584 58
291 186 537 377 728 49 50 107 101 127 115 l38 25 0 633 c0 347 -3 632 -7 631
-5 0 -57 -18 -118 -39z"/>
</g>
</svg>
