<?xml version="1.0" standalone="no"?>
<!DOCTYPE svg PUBLIC "-//W3C//DTD SVG 20010904//EN"
 "http://www.w3.org/TR/2001/REC-SVG-20010904/DTD/svg10.dtd">
<svg version="1.0" xmlns="http://www.w3.org/2000/svg"
 width="500.000000pt" height="500.000000pt" viewBox="0 0 500.000000 500.000000"
 preserveAspectRatio="xMidYMid meet">
<metadata>
Created by potrace 1.14, written by Peter Selinger 2001-2017
</metadata>
<g transform="translate(0.000000,500.000000) scale(0.100000,-0.100000)"
fill="#000000" stroke="none">
<path d="M1680 4946 c-431 -149 -831 -433 -1124 -797 -284 -354 -465 -780
-538 -1264 -20 -138 -17 -550 5 -695 94 -604 368 -1123 801 -1518 888 -812
2206 -873 3176 -148 117 87 385 352 467 461 282 377 436 742 510 1209 22 140
25 543 5 686 -43 306 -131 583 -267 847 -248 479 -640 864 -1120 1098 -127 63
-271 122 -362 150 l-23 6 0 -634 0 -635 55 -42 c191 -147 363 -412 438 -676
56 -193 74 -452 47 -655 -61 -457 -321 -848 -690 -1038 -114 -58 -224 -96
-340 -117 -111 -20 -321 -19 -435 1 -534 95 -940 527 -1039 1105 -59 345 0
710 161 995 87 154 223 314 337 396 l46 32 0 634 c0 348 -3 633 -7 632 -5 0
-51 -15 -103 -33z"/>
</g>
</svg>
