<?xml version="1.0" standalone="no"?>
<!DOCTYPE svg PUBLIC "-//W3C//DTD SVG 20010904//EN"
 "http://www.w3.org/TR/2001/REC-SVG-20010904/DTD/svg10.dtd">
<svg version="1.0" xmlns="http://www.w3.org/2000/svg"
 width="512.000000pt" height="512.000000pt" viewBox="0 0 512.000000 512.000000"
 preserveAspectRatio="xMidYMid meet">
<metadata>
Created by potrace 1.14, written by Peter Selinger 2001-2017
</metadata>
<g transform="translate(0.000000,512.000000) scale(0.100000,-0.100000)"
fill="#000000" stroke="none">
<path d="M51 5106 c-53 -30 -50 126 -51 -2543 0 -1904 3 -2488 12 -2508 27
-59 -152 -55 2548 -55 2700 0 2521 -4 2548 55 9 20 12 604 12 2506 0 2699 4
2520 -55 2547 -40 19 -4980 17 -5014 -2z m4869 -2546 l0 -2360 -2360 0 -2360
0 0 2360 0 2360 2360 0 2360 0 0 -2360z"/>
<path d="M2530 3028 c0 -863 -2 -1568 -4 -1568 -3 0 -44 10 -93 22 -75 19
-115 22 -278 22 -160 0 -205 -3 -282 -21 -336 -79 -633 -285 -750 -520 -66
-133 -54 -252 33 -318 121 -92 382 -140 635 -116 455 42 767 244 877 566 l27
80 3 1208 c1 664 4 1207 6 1207 2 0 51 -16 108 -36 615 -213 934 -472 1030
-834 26 -97 27 -281 3 -395 -40 -192 -140 -431 -275 -655 -34 -58 -65 -109
-67 -115 -3 -5 43 39 102 98 436 443 546 896 317 1302 -89 159 -206 286 -442
482 -358 297 -663 666 -927 1120 l-22 38 -1 -1567z"/>
</g>
</svg>
